grf
version=1
nRows=8
nColumns=28
inDegrees=no
endheader
time	ground_force_1_vx	ground_force_1_vy	ground_force_1_vz	ground_force_1_px	ground_force_1_py	ground_force_1_pz	ground_moment_1_mx	ground_moment_1_my	ground_moment_1_mz	ground_force_2_vx	ground_force_2_vy	ground_force_2_vz	ground_force_2_px	ground_force_2_py	ground_force_2_pz	ground_moment_2_mx	ground_moment_2_my	ground_moment_2_mz	ground_force_3_vx	ground_force_3_vy	ground_force_3_vz	ground_force_3_px	ground_force_3_py	ground_force_3_pz	ground_moment_3_mx	ground_moment_3_my	ground_moment_3_mz
      0.00000000	      0.48488838	      0.61026070	      2.53193603	    383.80750210	  -1251.35540420	      1.97604563	      0.04759463	      0.17210279	     94.30306166	      0.54350771	      0.42743834	      2.01411086	     78.57189783	  -1491.75044709	      0.33831949	     -0.02512789	     -0.32497739	    389.41176812	      1.30627356	     -0.93519064	      4.24010303	    485.85554159	   -242.26909314	      0.30529377	     -0.11192548	      0.82219641	    400.36044232
      0.01000000	      0.53014300	      0.59750675	      1.40934033	    273.56490553	  -1292.28556127	      2.10638233	      0.09550070	      0.34533176	    189.22320796	      0.54462800	      0.17614446	      1.18179228	    -77.08635287	  -1269.47819092	      0.51376898	     -0.02750953	     -0.35577910	    426.32064242	      1.25811776	     -0.80566985	      4.41236778	    472.98855036	   -246.57159830	      0.31053245	     -0.07490924	      0.55027779	    267.95234675
      0.02000000	      0.67258772	      0.47715037	      1.99977082	    346.29709366	  -1255.89031813	      2.00325329	      0.06574386	      0.23773064	    130.26359160	      0.49344694	      0.40358826	      1.55534235	     60.94629716	  -1466.22152457	      0.35848690	     -0.02456675	     -0.31772027	    380.71575976	      1.48134393	     -0.87708069	      4.25166125	    476.74224648	   -210.40023790	      0.23729887	     -0.14274921	      1.04862530	    510.61775830
      0.03000000	      0.42121335	      0.45156263	      2.02039050	    374.50014611	  -1262.45363383	      2.00099728	      0.07115109	      0.25728325	    140.97736641	      0.34592767	      0.26387591	      1.78452515	    104.74504675	  -1501.20674922	      0.33211678	     -0.01969682	     -0.25473774	    305.24546245	      1.49964497	     -0.85851709	      4.21597837	    416.43683448	   -259.81223938	      0.32191427	     -0.07740928	      0.56864290	    276.89505943
      0.04000000	      0.55995823	      0.72806241	      2.32068865	    356.45981132	  -1297.44766408	      2.07396620	      0.09632170	      0.34830052	    190.84993301	      0.32304448	      0.28382330	      2.02137305	    168.95263951	  -1560.94543093	      0.28640599	     -0.01098168	     -0.14202540	    170.18525765	      1.49810422	     -0.90472021	      4.45251346	    475.73478171	   -220.79323094	      0.25836069	     -0.12965622	      0.95244515	    463.78378233
      0.05000000	      0.56486570	      0.85101412	      1.89875596	    338.89542065	  -1290.59734317	      2.07032911	      0.06698837	      0.24223082	    132.72944808	      0.38835152	      0.19343050	      1.49110212	    -10.79034586	  -1442.24110431	      0.37387037	     -0.01444524	     -0.18681939	    223.86071319	      1.34440182	     -0.69694801	      4.39515344	    471.70442986	   -252.46928152	      0.32228518	     -0.07806201	      0.57343779	    279.22987935
      0.06000000	      0.62233981	      0.48064007	      2.09356865	    370.68686157	  -1302.59664884	      2.07618271	      0.07308801	      0.26428719	    144.81514704	      0.12582491	      0.18920965	      2.29413800	    163.54932809	  -1525.74846371	      0.31543039	     -0.00631876	     -0.08172016	     97.92309486	      1.45573338	     -0.83205525	      3.92958189	    414.35591445	   -207.78203311	      0.21448118	     -0.10078074	      0.74032798	    360.49541707
      0.07000000	      1.75204856	      0.06166760	      3.89029883	    420.48290815	  -1215.35510338	      1.89183517	      0.01799909	      0.06508494	     35.66304496	      0.60870226	      0.94534125	      1.49825860	     -0.61256535	  -1412.41589605	      0.39941728	     -0.04333482	     -0.56044648	    671.56811490	    181.37013412	    184.60887216	   -374.18667405	    496.88810999	   -583.29143387	      1.00871534	     -0.30772734	      2.26054258	   1100.74893610
